<?xml version="1.0" encoding="UTF-8"?>
<svg width="100px" height="100px" viewBox="0 0 100 100" version="1.1" xmlns="http://www.w3.org/2000/svg" xmlns:xlink="http://www.w3.org/1999/xlink">
    <!-- Generator: Sketch 42 (36781) - http://www.bohemiancoding.com/sketch -->
    <title>Combined Shape</title>
    <desc>Created with Sketch.</desc>
    <defs></defs>
    <g id="Page-1" stroke="none" stroke-width="1" fill="none" fill-rule="evenodd">
        <g id="logo-square-copy" fill="#FFFFFF">
            <path d="M0,0 L100,0 L100,100 L0,100 L0,0 Z M7.49167592,7.49167592 L7.49167592,92.4528302 L92.4528302,92.4528302 L92.4528302,7.49167592 L7.49167592,7.49167592 Z M16.5155857,17.4324908 C16.7058994,17.3959434 16.8892476,17.3708175 17.0656358,17.3571122 C17.2420241,17.3434069 17.413768,17.3365544 17.5808727,17.3365544 C18.1146793,17.3365544 18.5858145,17.4165006 18.9942926,17.5763954 C19.4027707,17.7362903 19.7462585,17.9544292 20.0247663,18.2308189 C20.303274,18.5072085 20.5133122,18.8315617 20.654887,19.2038883 C20.7964618,19.5762148 20.8672481,19.9748038 20.8672481,20.3996672 C20.8672481,20.9341727 20.7709323,21.4218446 20.5782977,21.8626975 C20.3856632,22.3035504 20.1176034,22.683866 19.7741105,23.0036556 C19.4306176,23.3234453 19.0209852,23.5712786 18.5452011,23.7471629 C18.0694169,23.9230472 17.5483831,24.010988 16.9820839,24.010988 C16.6525164,24.010988 16.3380394,23.9767253 16.0386435,23.908199 C15.7392477,23.8396726 15.4584232,23.7471635 15.1961617,23.6306686 C14.9339002,23.5141738 14.69137,23.3794074 14.4685637,23.2263652 C14.2457575,23.073323 14.0438424,22.9100043 13.8628123,22.7364042 L14.5312277,21.8592712 C14.6008546,21.7679028 14.6820848,21.6982353 14.7749208,21.6502669 C14.8677567,21.6022984 14.9675538,21.5783146 15.0743151,21.5783146 C15.213569,21.5783146 15.3446978,21.6160035 15.4677054,21.6913825 C15.590713,21.7667615 15.7253231,21.8489919 15.8715397,21.9380761 C16.0177563,22.0271604 16.1883397,22.1082487 16.3832952,22.1813435 C16.5782506,22.2544383 16.8196204,22.2909851 17.1074118,22.2909851 C17.3952032,22.2909851 17.6412147,22.2441595 17.8454537,22.1505068 C18.0496928,22.0568541 18.2156345,21.9289402 18.3432839,21.7667611 C18.4709333,21.6045821 18.5637679,21.4149953 18.6217903,21.1979952 C18.6798128,20.9809951 18.7088235,20.7491511 18.7088235,20.5024562 C18.7088235,20.0182033 18.5695717,19.6493086 18.291064,19.3957611 C18.0125562,19.1422136 17.6180094,19.0154417 17.1074118,19.0154417 C16.6525158,19.0154417 16.20691,19.0999563 15.7705811,19.268988 L14.4337504,18.9126527 L15.2971202,13.9171064 L20.4912645,13.9171064 L20.4912645,14.7942393 C20.4912645,14.9404289 20.4680558,15.0729112 20.4216379,15.1916902 C20.3752199,15.3104692 20.3021127,15.4143993 20.2023141,15.5034836 C20.1025155,15.5925678 19.9713867,15.6610932 19.8089238,15.7090616 C19.6464609,15.7570301 19.4515084,15.7810139 19.2240604,15.7810139 L16.8010548,15.7810139 L16.5155857,17.4324908 Z M25.1771345,17.7545631 C25.5020602,17.6357841 25.8641149,17.5763954 26.2633094,17.5763954 C26.6300113,17.5763954 26.992066,17.6357841 27.3494844,17.7545631 C27.7069027,17.8733421 28.0271818,18.0560763 28.3103314,18.3027712 C28.593481,18.549466 28.822086,18.8612563 28.9961534,19.2381512 C29.1702208,19.6150462 29.2572532,20.0593187 29.2572532,20.5709822 C29.2572532,21.0369614 29.1690603,21.4789497 28.9926721,21.8969605 C28.8162838,22.3149713 28.566791,22.6804397 28.2441861,22.9933767 C27.9215813,23.3063137 27.5328367,23.554147 27.0779406,23.736884 C26.6230446,23.9196209 26.1194172,24.010988 25.5670435,24.010988 C25.0007443,24.010988 24.4924752,23.9230472 24.042221,23.7471629 C23.5919667,23.5712786 23.2101847,23.3257295 22.8968634,23.0105082 C22.5835422,22.695287 22.3444932,22.3183977 22.1797095,21.879829 C22.0149257,21.4412603 21.932535,20.9592989 21.932535,20.4339302 C21.932535,19.4517191 22.3177984,18.4535335 23.0883366,17.4393434 L25.372089,14.4036411 C25.4788503,14.2711568 25.6331877,14.1569479 25.8351059,14.061011 C26.037024,13.9650741 26.2679499,13.9171064 26.5278905,13.9171064 L28.4495846,13.9171064 L25.4417156,17.4530486 L25.1771345,17.7545631 Z M25.5252675,22.3321007 C25.7480737,22.3321007 25.955791,22.2909855 26.1484256,22.2087539 C26.3410601,22.1265223 26.5070018,22.0134555 26.6462557,21.8695501 C26.7855096,21.7256448 26.8957506,21.5566156 26.9769821,21.3624576 C27.0582135,21.1682996 27.0988286,20.9570132 27.0988286,20.728592 C27.0988286,20.4727603 27.0605344,20.2443425 26.9839447,20.0433319 C26.9073551,19.8423212 26.7994349,19.6732921 26.660181,19.5362394 C26.5209271,19.3991867 26.3526646,19.2941145 26.1553882,19.2210197 C25.9581119,19.147925 25.7387903,19.1113781 25.4974169,19.1113781 C25.2792524,19.1113781 25.0796582,19.1490671 24.8986281,19.224446 C24.7175981,19.299825 24.5609398,19.4083235 24.4286486,19.5499446 C24.2963574,19.6915657 24.193079,19.8605949 24.1188102,20.0570371 C24.0445415,20.2534793 24.0074077,20.4750445 24.0074077,20.7217394 C24.0074077,20.9684343 24.0375789,21.1899995 24.0979222,21.3864417 C24.1582656,21.5828839 24.2511001,21.7519131 24.3764286,21.8935342 C24.5017571,22.0351554 24.6595758,22.1436538 24.8498895,22.2190328 C25.0402032,22.2944118 25.2653269,22.3321007 25.5252675,22.3321007 Z M54.4889533,61.9791174 C55.8852058,60.7657441 57.4336858,59.8630373 59.13444,59.2709695 C60.8351942,58.6789017 62.6584645,58.3828725 64.6043055,58.3828725 C66.000558,58.3828725 67.2593942,58.6058081 68.3808521,59.0516861 C69.5023103,59.4975644 70.4529359,60.1188607 71.2327578,60.9155939 C72.0125794,61.7123267 72.6104338,62.6588901 73.0263388,63.7553118 C73.4422438,64.8517334 73.6501931,66.0504697 73.6501931,67.3515567 L73.6501931,81.5611109 L70.4863605,81.5611109 C69.8327955,81.5611109 69.3389158,81.4733983 69.0047066,81.2979709 C68.6704972,81.1225434 68.3919936,80.7570749 68.1691873,80.2015547 L67.6790161,78.9516402 C67.0997198,79.4340658 66.5427126,79.8580091 66.0079779,80.223483 C65.4732429,80.5889569 64.919949,80.8996052 64.3480797,81.1554368 C63.7762103,81.4112685 63.1672157,81.601312 62.5210777,81.7255733 C61.8749396,81.8498342 61.1582571,81.9119639 60.3710083,81.9119639 C59.3163924,81.9119639 58.3583398,81.7767406 57.4968223,81.5062899 C56.6353051,81.2358392 55.9037689,80.8374788 55.3021922,80.3111964 C54.7006151,79.784914 54.2364426,79.1307255 53.9096601,78.3486114 C53.5828776,77.5664973 53.4194889,76.6637902 53.4194889,75.6404632 C53.4194889,74.8218018 53.6274381,73.9921886 54.0433431,73.1515986 C54.4592482,72.3110086 55.1796441,71.5435249 56.2045528,70.8491244 C57.2294615,70.1547242 58.6108392,69.5736293 60.3487278,69.1058228 C62.0866166,68.6380162 64.2775114,68.3748789 66.9214788,68.316403 L66.9214788,67.3515567 C66.9214788,66.0212319 66.6429752,65.0600501 66.0859597,64.4679823 C65.5289439,63.8759145 64.7379936,63.5798852 63.7130852,63.5798852 C62.896129,63.5798852 62.2277202,63.6675976 61.7078391,63.8430249 C61.1879579,64.0184525 60.7237851,64.2158055 60.315307,64.4350898 C59.9068291,64.654374 59.5094971,64.851727 59.1232998,65.0271545 C58.7371024,65.2025818 58.2766429,65.2902945 57.7419082,65.2902945 C57.266588,65.2902945 56.8655429,65.1733446 56.5387604,64.9394411 C56.2119779,64.705538 55.9446146,64.4277819 55.7366621,64.1061648 L54.4889533,61.9791174 Z M66.9214788,72.3073581 C65.5400801,72.365834 64.4037855,72.4827836 63.5125606,72.6582112 C62.6213357,72.8336387 61.9157931,73.0529198 61.395912,73.316061 C60.8760308,73.5792022 60.5158328,73.8788863 60.315307,74.2151222 C60.1147814,74.5513583 60.0145201,74.9168267 60.0145201,75.3115384 C60.0145201,76.086343 60.2298963,76.6308911 60.6606551,76.9451986 C61.0914138,77.2595062 61.7226886,77.4166575 62.5544984,77.4166575 C63.4457233,77.4166575 64.2255336,77.2631608 64.8939522,76.9561628 C65.562371,76.6491647 66.2382064,76.1521276 66.9214788,75.4650367 L66.9214788,72.3073581 Z M38.2464605,49.6115427 C40.4893767,49.6115427 42.3980546,49.816205 43.9725519,50.2255357 C45.5470495,50.6348667 46.8318792,51.2123067 47.8270805,51.9578735 C48.8222816,52.7034403 49.5463911,53.6098019 49.9994304,54.6769855 C50.4524696,55.7441694 50.678986,56.9355964 50.678986,58.2513025 C50.678986,58.9676312 50.5750114,59.6583665 50.3670588,60.3235289 C50.1591063,60.9886916 49.8323286,61.6099879 49.3867162,62.1874366 C48.9411037,62.7648854 48.3692432,63.2948144 47.671117,63.77724 C46.9729907,64.2596656 46.1337666,64.6762997 45.1534192,65.0271545 C47.2923589,65.5388179 48.8742594,66.3647765 49.8991682,67.505055 C50.9240766,68.6453337 51.4365233,70.1218261 51.4365233,71.9345765 C51.4365233,73.2941394 51.16916,74.55866 50.634425,75.7281766 C50.09969,76.8976931 49.3161666,77.9173498 48.283831,78.7871778 C47.2514956,79.6570056 45.9778056,80.336777 44.4627234,80.8265118 C42.9476409,81.3162469 41.2172053,81.5611109 39.2713642,81.5611109 L26.3041065,81.5611109 L26.3041065,49.6115427 L38.2464605,49.6115427 Z M33.8349194,55.1594088 L33.8349194,63.0536054 L37.7562893,63.0536054 C38.5880994,63.0536054 39.3382022,62.9951303 40.006621,62.8781789 C40.6750396,62.7612272 41.243187,62.5565649 41.7110802,62.2641856 C42.1789732,61.9718066 42.5354578,61.5697914 42.7805447,61.058128 C43.0256315,60.5464643 43.1481731,59.90324 43.1481731,59.1284354 C43.1481731,58.3682496 43.0516251,57.7359894 42.8585265,57.2316352 C42.6654278,56.7272814 42.3683573,56.3216115 41.9673061,56.0146134 C41.5662549,55.7076154 41.0575216,55.4883341 40.441091,55.3567636 C39.8246603,55.2251932 39.0931242,55.1594088 38.2464605,55.1594088 L33.8349194,55.1594088 Z M39.1376812,75.9693882 C40.1328822,75.9693882 40.9461127,75.8451288 41.5773972,75.5966066 C42.2086814,75.3480844 42.7025611,75.0264723 43.059051,74.6317603 C43.415541,74.2370486 43.6606243,73.7911771 43.7943079,73.2941327 C43.9279917,72.7970881 43.9948324,72.2927417 43.9948324,71.7810783 C43.9948324,71.19632 43.9168517,70.6700456 43.7608871,70.202239 C43.6049228,69.7344325 43.3375594,69.3397264 42.9587888,69.0181094 C42.5800181,68.6964923 42.0787117,68.447974 41.4548544,68.2725465 C40.8309968,68.0971189 40.0437599,68.0094065 39.0931201,68.0094065 L33.8349194,68.0094065 L33.8349194,75.9693882 L39.1376812,75.9693882 Z" id="Combined-Shape"></path>
        </g>
    </g>
</svg>